<svg width="578" height="751" viewBox="0 0 578 751" fill="none" xmlns="http://www.w3.org/2000/svg">
<g clip-path="url(#clip0_1_4751)">
<g filter="url(#filter0_i_1_4751)">
<path d="M137.403 313.157C179.054 302.003 164.383 173.999 200.566 115.028C216.557 88.9641 301.32 100.131 317.687 160.874C327.061 148.059 380.341 115.028 417.008 175.902C418.313 150.983 435.377 105.558 493.19 123.215C496.157 101.5 566.168 69.3846 588.952 133.183C619.203 97.1109 670.83 37.3454 722.092 88.9641C775.847 163.366 856.509 69.9682 910.767 123.215C939.466 30.4851 978.121 17.486 1051.03 64.4768C1063.84 47.1519 1148.21 -8.98536 1148.21 44.5413C1148.21 64.4769 1148.21 108.458 1148.21 190.694C1148.21 190.694 480.603 190.694 52.8294 190.694C-13.4134 194.674 11.2354 346.946 137.403 313.157Z" fill="#D49E14"/>
</g>
</g>
<g clip-path="url(#clip1_1_4751)">
<g filter="url(#filter1_i_1_4751)">
<path d="M114.903 291.703C156.554 280.549 141.883 152.545 178.066 93.5736C194.057 67.51 278.82 78.6766 295.187 139.42C304.561 126.605 357.841 93.5735 394.508 154.448C395.813 129.529 412.877 84.1041 470.69 101.761C473.657 80.0458 543.668 47.9305 566.452 111.729C582.515 156.709 568.435 177.365 619.698 228.984C673.453 303.386 834.009 48.514 888.267 101.761C916.966 9.03095 955.621 -3.96811 1028.53 43.0227C1041.34 25.6978 1125.71 -30.4395 1125.71 23.0872C1125.71 43.0228 1125.71 87.0038 1125.71 169.239C1125.71 169.239 458.103 169.24 30.3294 169.24C-35.9134 173.22 -11.2646 325.492 114.903 291.703Z" fill="#D49E14"/>
</g>
</g>
<g clip-path="url(#clip2_1_4751)">
<g filter="url(#filter2_i_1_4751)">
<path d="M153.823 192.431C142.669 234.082 55.976 235.669 92.9486 299.839C92.9486 299.839 26.6581 398.092 138.795 416.96C125.98 426.334 92.9486 479.614 153.823 516.281C128.904 517.587 83.4792 534.65 101.136 592.463C79.4209 595.43 47.3056 665.441 111.104 688.225C75.0319 718.477 15.2664 770.103 66.8851 821.365C141.287 875.12 47.8892 955.782 101.136 1010.04C8.40609 1038.74 -4.59297 1077.39 42.3978 1150.3C25.0729 1163.12 -31.0643 1247.49 22.4623 1247.49C42.3979 1247.49 86.3789 1247.49 168.615 1247.49L168.615 152.103L153.823 192.431Z" fill="#D49E14"/>
</g>
</g>
<g clip-path="url(#clip3_1_4751)">
<g filter="url(#filter3_i_1_4751)">
<path d="M24.3536 152.405C13.1992 194.056 15.2093 281.571 112.324 299.798C112.324 299.798 46.0331 398.052 158.17 416.919C145.355 426.294 112.324 479.574 173.198 516.241C148.279 517.546 102.854 534.61 120.511 592.423C98.7959 595.389 66.6806 665.401 130.479 688.184C94.4069 718.436 34.6414 770.062 86.2601 821.325C160.662 875.08 67.2642 955.742 120.511 1010C27.7811 1038.7 14.782 1077.35 61.7728 1150.26C44.4479 1163.08 -11.6893 1247.45 41.8373 1247.45C61.7729 1247.45 105.754 1247.45 187.99 1247.45C187.99 1247.45 187.99 579.836 187.99 152.062C191.97 85.8193 58.142 26.2377 24.3536 152.405Z" fill="#D49E14"/>
</g>
</g>
<g clip-path="url(#clip4_1_4751)">
<g filter="url(#filter4_i_1_4751)">
<path d="M178.701 671.85C220.352 683.005 307.867 680.995 326.094 583.881C326.094 583.881 424.348 650.171 443.215 538.034C452.59 550.85 505.87 583.881 542.537 523.006C543.842 547.926 560.906 593.35 618.719 575.693C621.685 597.408 691.697 629.524 714.48 565.725C744.732 601.797 796.358 661.563 847.621 609.944C901.376 535.542 982.038 628.94 1036.3 575.693C1064.99 668.423 1103.65 681.422 1176.56 634.431C1189.37 651.756 1273.74 707.894 1273.74 654.367C1273.74 634.431 1273.74 590.45 1273.74 508.215C1273.74 508.215 606.132 508.215 178.358 508.214C112.115 504.234 52.5336 638.062 178.701 671.85Z" fill="#D49E14"/>
</g>
</g>
<g clip-path="url(#clip5_1_4751)">
<g filter="url(#filter5_i_1_4751)">
<path d="M255.403 458.751C297.054 469.905 282.383 597.909 318.566 656.881C334.557 682.944 419.32 671.778 435.687 611.034C445.061 623.85 498.341 656.881 535.008 596.006C536.313 620.926 553.377 666.35 611.19 648.693C614.157 670.408 684.168 702.524 706.952 638.725C737.203 674.797 788.83 734.563 840.092 682.944C893.847 608.542 974.509 701.94 1028.77 648.693C1057.47 741.423 1096.12 754.422 1169.03 707.431C1181.84 724.756 1266.21 780.894 1266.21 727.367C1266.21 707.431 1266.21 663.45 1266.21 581.215C1266.21 581.215 598.603 581.215 170.829 581.214C104.587 577.234 129.235 424.962 255.403 458.751Z" fill="#D49E14"/>
</g>
</g>
<defs>
<filter id="filter0_i_1_4751" x="17.1191" y="21.9539" width="1135.09" height="300.093" filterUnits="userSpaceOnUse" color-interpolation-filters="sRGB">
<feFlood flood-opacity="0" result="BackgroundImageFix"/>
<feBlend mode="normal" in="SourceGraphic" in2="BackgroundImageFix" result="shape"/>
<feColorMatrix in="SourceAlpha" type="matrix" values="0 0 0 0 0 0 0 0 0 0 0 0 0 0 0 0 0 0 127 0" result="hardAlpha"/>
<feOffset dx="5" dy="19"/>
<feGaussianBlur stdDeviation="2"/>
<feComposite in2="hardAlpha" operator="arithmetic" k2="-1" k3="1"/>
<feColorMatrix type="matrix" values="0 0 0 0 0.630833 0 0 0 0 0.470414 0 0 0 0 0.0604547 0 0 0 1 0"/>
<feBlend mode="normal" in2="shape" result="effect1_innerShadow_1_4751"/>
</filter>
<filter id="filter1_i_1_4751" x="-5.38086" y="0.499756" width="1135.09" height="300.093" filterUnits="userSpaceOnUse" color-interpolation-filters="sRGB">
<feFlood flood-opacity="0" result="BackgroundImageFix"/>
<feBlend mode="normal" in="SourceGraphic" in2="BackgroundImageFix" result="shape"/>
<feColorMatrix in="SourceAlpha" type="matrix" values="0 0 0 0 0 0 0 0 0 0 0 0 0 0 0 0 0 0 127 0" result="hardAlpha"/>
<feOffset dx="5" dy="19"/>
<feGaussianBlur stdDeviation="2"/>
<feComposite in2="hardAlpha" operator="arithmetic" k2="-1" k3="1"/>
<feColorMatrix type="matrix" values="0 0 0 0 0.630833 0 0 0 0 0.470414 0 0 0 0 0.0604547 0 0 0 1 0"/>
<feBlend mode="normal" in2="shape" result="effect1_innerShadow_1_4751"/>
</filter>
<filter id="filter2_i_1_4751" x="-0.125" y="152.103" width="172.74" height="1099.38" filterUnits="userSpaceOnUse" color-interpolation-filters="sRGB">
<feFlood flood-opacity="0" result="BackgroundImageFix"/>
<feBlend mode="normal" in="SourceGraphic" in2="BackgroundImageFix" result="shape"/>
<feColorMatrix in="SourceAlpha" type="matrix" values="0 0 0 0 0 0 0 0 0 0 0 0 0 0 0 0 0 0 127 0" result="hardAlpha"/>
<feOffset dx="5" dy="19"/>
<feGaussianBlur stdDeviation="2"/>
<feComposite in2="hardAlpha" operator="arithmetic" k2="-1" k3="1"/>
<feColorMatrix type="matrix" values="0 0 0 0 0.630833 0 0 0 0 0.470414 0 0 0 0 0.0604547 0 0 0 1 0"/>
<feBlend mode="normal" in2="shape" result="effect1_innerShadow_1_4751"/>
</filter>
<filter id="filter3_i_1_4751" x="19.25" y="78.4438" width="172.827" height="1173" filterUnits="userSpaceOnUse" color-interpolation-filters="sRGB">
<feFlood flood-opacity="0" result="BackgroundImageFix"/>
<feBlend mode="normal" in="SourceGraphic" in2="BackgroundImageFix" result="shape"/>
<feColorMatrix in="SourceAlpha" type="matrix" values="0 0 0 0 0 0 0 0 0 0 0 0 0 0 0 0 0 0 127 0" result="hardAlpha"/>
<feOffset dx="5" dy="19"/>
<feGaussianBlur stdDeviation="2"/>
<feComposite in2="hardAlpha" operator="arithmetic" k2="-1" k3="1"/>
<feColorMatrix type="matrix" values="0 0 0 0 0.630833 0 0 0 0 0.470414 0 0 0 0 0.0604547 0 0 0 1 0"/>
<feBlend mode="normal" in2="shape" result="effect1_innerShadow_1_4751"/>
</filter>
<filter id="filter4_i_1_4751" x="104.74" y="504.127" width="1173" height="172.827" filterUnits="userSpaceOnUse" color-interpolation-filters="sRGB">
<feFlood flood-opacity="0" result="BackgroundImageFix"/>
<feBlend mode="normal" in="SourceGraphic" in2="BackgroundImageFix" result="shape"/>
<feColorMatrix in="SourceAlpha" type="matrix" values="0 0 0 0 0 0 0 0 0 0 0 0 0 0 0 0 0 0 127 0" result="hardAlpha"/>
<feOffset dx="5" dy="-18"/>
<feGaussianBlur stdDeviation="2"/>
<feComposite in2="hardAlpha" operator="arithmetic" k2="-1" k3="1"/>
<feColorMatrix type="matrix" values="0 0 0 0 0.630833 0 0 0 0 0.470414 0 0 0 0 0.0604547 0 0 0 1 0"/>
<feBlend mode="normal" in2="shape" result="effect1_innerShadow_1_4751"/>
</filter>
<filter id="filter5_i_1_4751" x="135.119" y="449.862" width="1135.09" height="300.093" filterUnits="userSpaceOnUse" color-interpolation-filters="sRGB">
<feFlood flood-opacity="0" result="BackgroundImageFix"/>
<feBlend mode="normal" in="SourceGraphic" in2="BackgroundImageFix" result="shape"/>
<feColorMatrix in="SourceAlpha" type="matrix" values="0 0 0 0 0 0 0 0 0 0 0 0 0 0 0 0 0 0 127 0" result="hardAlpha"/>
<feOffset dx="5" dy="-18"/>
<feGaussianBlur stdDeviation="2"/>
<feComposite in2="hardAlpha" operator="arithmetic" k2="-1" k3="1"/>
<feColorMatrix type="matrix" values="0 0 0 0 0.630833 0 0 0 0 0.470414 0 0 0 0 0.0604547 0 0 0 1 0"/>
<feBlend mode="normal" in2="shape" result="effect1_innerShadow_1_4751"/>
</filter>
<clipPath id="clip0_1_4751">
<rect width="170" height="232" fill="white" transform="matrix(1.39071e-07 1 1 -1.39071e-07 185.75 21.4541)"/>
</clipPath>
<clipPath id="clip1_1_4751">
<rect width="170" height="182" fill="white" transform="matrix(1.39071e-07 1 1 -1.39071e-07 395.25 0)"/>
</clipPath>
<clipPath id="clip2_1_4751">
<rect width="169" height="217" fill="white" transform="translate(0 290.454)"/>
</clipPath>
<clipPath id="clip3_1_4751">
<rect width="170" height="222" fill="white" transform="translate(18.75 77.4541)"/>
</clipPath>
<clipPath id="clip4_1_4751">
<rect width="170" height="222" fill="white" transform="translate(103.75 677.454) rotate(-90)"/>
</clipPath>
<clipPath id="clip5_1_4751">
<rect width="170" height="232" fill="white" transform="translate(303.75 750.454) rotate(-90)"/>
</clipPath>
</defs>
</svg>
